<?xml version="1.0" encoding="UTF-8"?>
<!-- Uploaded to: SVG Find, www.svgfind.com, Generator: SVG Find Mixer Tools -->
<svg fill="#000000" width="800px" height="800px" version="1.1" viewBox="144 144 512 512" xmlns="http://www.w3.org/2000/svg">
 <path d="m480.2 214.84-187.64 174.62 80.348 42.262c5.2148 2.7344 7.3906 8.9922 5.168 14.328l-58.266 139.11 187.64-174.62-80.348-42.262c-5.2148-2.7344-7.3906-8.9922-5.168-14.328zm-214.71 168.92 237.4-220.9c3.1289-3.1445 7.9805-4.2461 12.332-2.4492 5.7578 2.4023 8.4961 9.0078 6.1055 14.781l-74.527 177.91 85.078 44.754c1.1797 0.58984 2.2656 1.3906 3.2031 2.4023 4.2461 4.5664 3.9883 11.715-0.57422 15.961l-237.4 220.9c-3.1289 3.1445-7.9805 4.2461-12.332 2.4492-5.7578-2.4023-8.4961-9.0078-6.1055-14.781l74.527-177.91-85.078-44.754c-1.1797-0.58984-2.2656-1.3906-3.2031-2.4023-4.2461-4.5664-3.9883-11.715 0.57422-15.961z"/>
</svg>