<?xml version="1.0" encoding="UTF-8"?>
<!-- Uploaded to: SVG Find, www.svgfind.com, Generator: SVG Find Mixer Tools -->
<svg fill="#000000" width="800px" height="800px" version="1.1" viewBox="144 144 512 512" xmlns="http://www.w3.org/2000/svg">
 <g fill-rule="evenodd">
  <path d="m411.12 399.37c-6.1523-6.1523-16.102-6.1523-22.25 0 0 0-15.785 15.742-28.383 35.918-9.3633 14.969-16.605 32.285-16.605 47.883 0 25.465 24.266 48.031 56.113 48.031 31.844 0 56.113-22.566 56.113-48.031 0-15.598-7.2422-32.914-16.605-47.883-12.594-20.172-28.383-35.918-28.383-35.918zm-11.125 34.824c4.0312 4.9766 8.6289 11.082 12.805 17.781 6.1523 9.8438 11.82 20.93 11.82 31.195 0 10.223-11.84 16.543-24.625 16.543s-24.625-6.3203-24.625-16.543c0-10.266 5.668-21.348 11.82-31.195 4.1758-6.6953 8.7734-12.805 12.805-17.781z"/>
  <path d="m562.69 567.93v-222.94c0-8.9844-3.2969-17.676-9.2773-24.395l-72.402-81.469c-6.9688-7.8281-16.961-12.324-27.457-12.324h-179.5c-20.277 0-36.734 16.438-36.734 36.734v304.39c0 31.887 25.84 57.727 57.727 57.727h209.92c31.887 0 57.727-25.84 57.727-57.727zm-31.488-222.94v222.94c0 14.484-11.754 26.238-26.238 26.238h-209.92c-14.484 0-26.238-11.754-26.238-26.238v-304.39c0-2.8984 2.3516-5.2461 5.2461-5.2461h179.5c1.4922 0 2.918 0.65234 3.9258 1.7617 0 0 72.402 81.449 72.402 81.449 0.85938 0.96484 1.3242 2.2031 1.3242 3.4844z"/>
  <path d="m415.74 190.08c0-8.6914-7.0547-15.742-15.742-15.742h-115.46c-8.6914 0-15.742 7.0547-15.742 15.742v52.48c0 8.6914 7.0547 15.742 15.742 15.742h115.46c8.6914 0 15.742-7.0547 15.742-15.742zm-31.488 15.742v20.992h-83.969v-20.992z"/>
  <path d="m506.24 379.05-83.969-94.465c-5.7734-6.5078-15.742-7.0938-22.23-1.3242-6.5078 5.7734-7.0938 15.742-1.3242 22.23l83.969 94.465c5.7734 6.5078 15.742 7.0938 22.23 1.3242 6.5078-5.7734 7.0938-15.742 1.3242-22.23z"/>
 </g>
</svg>